# xmcd CD database file
#
# Track frame offsets:
#	150
#	14877
#	37886
#	44934
#	58291
#	68386
#	90163
#	98367
#	113598
#	123937
#	135812
#	149149
#	166687
#	185436
#	190958
#	197835
#	207686
#	217027
#	229611
#
# Disc length: 3167 seconds
#
# Revision: 0
# Processed by: cddbd v1.5PL3 Copyright (c) Steve Scherf et al.
# Submitted via: CDex 1.50beta10
#
DISCID=100c5d13
DTITLE=Doug Quattlebaum - If You've Ever Been Mistreated
DYEAR=1997
DGENRE=Blues
TTITLE0=Hard Luck Blues
TTITLE1=Good Woman Blues
TTITLE2=Baby, Please Don't Go
TTITLE3=Come Back, Baby
TTITLE4=Baby, What You Want Me To Do
TTITLE5=If You've Ever Been Mistreated
TTITLE6=Lizzie Lou
TTITLE7=Drifting Blues
TTITLE8=What'd I Say
TTITLE9=Kiddio
TTITLE10=It's Nobody's Fault But Mine
TTITLE11=The Story Of Adam And Eve
TTITLE12=Come Over Here
TTITLE13=The Honeydripper
TTITLE14=I've Been Working On My Baby
TTITLE15=Touch The Hem Of His Garment
TTITLE16=He May Not Come When You Want Him
TTITLE17=How Great Thou Art
TTITLE18=Quattlebaum's Boogie
EXTD=YEAR: 1997
EXTT0=
EXTT1=
EXTT2=
EXTT3=
EXTT4=
EXTT5=
EXTT6=
EXTT7=
EXTT8=
EXTT9=
EXTT10=
EXTT11=
EXTT12=
EXTT13=
EXTT14=
EXTT15=
EXTT16=
EXTT17=
EXTT18=
PLAYORDER=
